<svg width="132" height="120" viewBox="0 0 132 120" fill="none" xmlns="http://www.w3.org/2000/svg">
    <path d="M113.443 30.6953C114.852 28.9565 115.74 26.8218 115.999 24.5054C116.348 21.3984 115.523 18.3337 113.674 15.8788L109.662 10.5469C106.309 14.7074 106.085 20.9225 109.429 25.3622L113.443 30.6953Z"
          fill="#ABCB57"/>
    <path d="M97.0226 14.1049L101.111 17.1501C102.423 12.2746 100.895 6.78593 97.1611 4.00727L93.0741 0.960938C91.762 5.83416 93.2901 11.324 97.0226 14.1049Z"
          fill="#ABCB57"/>
    <path d="M101.019 110.008C98.0457 109.072 94.9011 109.419 92.1601 110.977L85.957 114.361C87.4535 116.398 89.4769 117.904 91.8514 118.653C94.8357 119.589 97.9901 119.243 100.738 117.671L106.85 114.161C105.358 112.186 103.347 110.743 101.019 110.008Z"
          fill="#ABCB57"/>
    <path d="M107.614 98.8067L103.303 103.881C105.18 105.03 107.344 105.578 109.56 105.446C112.538 105.268 115.275 103.884 117.258 101.548L121.569 96.4753C119.693 95.3256 117.546 94.7674 115.312 94.9081C112.332 95.0865 109.601 96.473 107.614 98.8067Z"
          fill="#ABCB57"/>
    <path d="M124.774 54.2544C122.602 56.3982 121.358 59.3038 121.268 62.4313L121.074 69.223C123.219 68.8386 125.207 67.8033 126.827 66.203C128.998 64.0592 130.242 61.1547 130.331 58.0271L130.528 51.2344C128.383 51.6187 126.394 52.6574 124.774 54.2544Z"
          fill="#ABCB57"/>
    <path d="M123.463 75.4591C120.722 76.6934 118.604 78.9755 117.5 81.8823L115.104 88.1969C117.241 88.6019 119.448 88.3468 121.492 87.4236C124.233 86.1859 126.351 83.9048 127.454 80.9969L129.851 74.6857C127.716 74.2728 125.506 74.5359 123.463 75.4591Z"
          fill="#ABCB57"/>
    <path d="M120.495 49.2539C125.005 46.5451 127.239 40.7864 125.547 35.4144L123.515 28.9648C119.005 31.676 116.771 37.4324 118.464 42.8044L120.495 49.2539Z"
          fill="#ABCB57"/>
    <path d="M34.3541 14.1049C38.0866 11.3217 39.6126 5.83645 38.3037 0.960938L34.2156 4.00727C30.483 6.7905 28.9571 12.2746 30.266 17.1501L34.3541 14.1049Z"
          fill="#ABCB57"/>
    <path d="M16.2753 88.1968L13.8789 81.8822C12.7751 78.9754 10.658 76.6932 7.91692 75.4589C5.87286 74.5335 3.66084 74.2784 1.52734 74.6856L3.9248 80.9968C5.02863 83.9047 7.14576 86.1869 9.8868 87.4235C11.9309 88.3467 14.1374 88.5995 16.2753 88.1968Z"
          fill="#ABCB57"/>
    <path d="M10.307 69.2227L10.1128 62.4333C10.0234 59.3058 8.77667 56.4001 6.60827 54.2564C4.98634 52.6571 2.99792 51.6207 0.853516 51.2363L1.04985 58.0291C1.13929 61.1567 2.38601 64.0612 4.5555 66.2049C6.17416 67.803 8.16258 68.8406 10.307 69.2227Z"
          fill="#ABCB57"/>
    <path d="M38.9559 110.988C36.2126 109.41 33.0538 109.063 30.0739 110.006C27.7463 110.736 25.736 112.184 24.2461 114.16L30.3597 117.669C33.1007 119.241 36.2617 119.592 39.2416 118.651C41.6162 117.903 43.6417 116.396 45.1393 114.359L38.9559 110.988Z"
          fill="#ABCB57"/>
    <path d="M10.8838 49.2539L12.9137 42.8044C14.6076 37.4346 12.3737 31.676 7.86352 28.9648L5.83038 35.4144C4.14191 40.7841 6.37575 46.5428 10.8838 49.2539Z"
          fill="#ABCB57"/>
    <path d="M23.7636 98.8072C21.7784 96.4736 19.0461 95.0871 16.0662 94.9086C13.8367 94.7656 11.6858 95.3262 9.80859 96.4758L14.1203 101.546C16.1065 103.884 18.8399 105.268 21.8177 105.447C24.0493 105.587 26.2014 105.03 28.0753 103.882L23.7636 98.8072Z"
          fill="#ABCB57"/>
    <path d="M17.9382 30.6953L21.9521 25.3622C25.2941 20.9202 25.0705 14.7074 21.7198 10.5469L17.708 15.8765C15.8603 18.3337 15.0346 21.3961 15.3826 24.5054C15.64 26.8218 16.5311 28.9565 17.9382 30.6953Z"
          fill="#ABCB57"/>
    <path d="M51.5078 112.396C51.1086 113.936 50.5294 115.396 49.791 116.75C54.8924 118.324 60.1782 119.17 65.5588 119.17C70.9383 119.17 76.2263 118.324 81.3277 116.75C80.5881 115.396 80.0122 113.936 79.6097 112.396C70.4802 115.103 60.6363 115.103 51.5078 112.396Z"
          fill="#ABCB57"/>
</svg>