<svg width="24" height="24" viewBox="0 0 24 24" fill="none" xmlns="http://www.w3.org/2000/svg">
<path fill-rule="evenodd" clip-rule="evenodd" d="M9.6 0.299988H14.4C16.9461 0.299988 19.3879 1.31141 21.1882 3.11176C22.9886 4.91211 24 7.35391 24 9.89999C24 12.4461 22.9886 14.8879 21.1882 16.6882C19.3879 18.4886 16.9461 19.5 14.4 19.5V23.7C8.4 21.3 0 17.7 0 9.89999C0 7.35391 1.01143 4.91211 2.81178 3.11176C4.61212 1.31141 7.05392 0.299988 9.6 0.299988ZM7.2 6.29996H16.8V8.69996H7.2V6.29996ZM13.2 11.1H7.2V13.5H13.2V11.1Z" fill="#FF1E2D"/>
</svg>
