<?xml version="1.0" encoding="UTF-8"?>
<svg id="_Слой_1" data-name="Слой_1" xmlns="http://www.w3.org/2000/svg" version="1.1" viewBox="0 0 1969 400">
  <!-- Generator: Adobe Illustrator 29.1.0, SVG Export Plug-In . SVG Version: 2.1.0 Build 142)  -->
  <defs>
    <style>
      .st0 {
        fill: #fff;
      }
    </style>
  </defs>
  <g>
    <g>
      <path class="st0" d="M1135.8,98.8c-.7-2-1.8-3.8-3.4-5.5s-3.7-3-6.5-3.9-6.1-1.4-9.9-1.4-4,0-8,0c-4,0-6.4,0-7.4,0v54h9.5v-19.5c1.5.2,3.9.2,7,.2,6.2,0,11-1.7,14.5-5.1,3.5-3.4,5.2-7.5,5.2-12.4s-.4-4.5-1.1-6.5ZM1124.1,111.7c-1.9,1.5-4.3,2.2-7.2,2.2s-4.2-.1-6.7-.4v-16.6c3.4-.1,5.7-.2,6.8-.2,6.6,0,9.9,2.8,9.9,8.4s-.9,5.1-2.8,6.5Z"/>
      <path class="st0" d="M1158.7,87.9l-22.8,54.1h9.6l5.6-13.8h23.1l5.6,13.8h10.1l-22.8-54.1h-8.3ZM1154.7,119.4l7.9-19.2,7.9,19.2h-15.8Z"/>
      <path class="st0" d="M1221.3,114.1v-.2c2.4-1.4,4.2-3.2,5.4-5.3,1.2-2.2,1.9-4.3,1.9-6.6,0-4.7-1.5-8.3-4.4-10.9-3-2.6-6.9-3.9-11.8-3.9s-7,.8-10.1,2.3c-3.1,1.5-5.6,3.6-7.4,6.1l5.5,6.3c2.9-3.9,6.6-5.9,10.9-5.9s4.3.6,5.7,1.8c1.4,1.2,2.2,2.9,2.2,5.1s-.8,3.9-2.3,5.2c-1.5,1.3-3.4,1.9-5.5,1.9h-5.2v8.9h5.6c3.1,0,5.4.6,7.1,1.9,1.6,1.3,2.5,3,2.5,5.2s-1,4.6-2.9,6c-1.9,1.4-4.3,2-7.1,2s-4.4-.6-6.8-1.9c-2.4-1.2-4.4-2.8-6.1-4.8l-5.2,6.4c1.6,2.5,4,4.7,7.2,6.4,3.2,1.8,6.9,2.7,11.3,2.7s9.6-1.5,13.3-4.4c3.7-2.9,5.6-6.8,5.6-11.6s-.8-6-2.3-8.2c-1.5-2.3-3.9-3.8-7-4.5Z"/>
      <path class="st0" d="M1264.6,113.6v-.2c5.1-2.4,7.7-6.5,7.7-12.3s-1.4-7.2-4.3-9.7c-2.9-2.4-7.3-3.7-13.5-3.7s-10.5.1-15.6.4v53.7c3.5.3,8.5.4,15,.4s10.9-1.4,14.5-4.1c3.7-2.7,5.5-6.8,5.5-12.1s-.9-6.2-2.6-8.3c-1.7-2.1-4-3.5-6.9-4.2ZM1248.4,97c1.7-.2,3.7-.2,5.9-.2s4.7.6,6.2,1.7c1.5,1.2,2.3,2.8,2.3,5s-.7,4.2-2.2,5.4c-1.5,1.2-3.4,1.8-5.8,1.8h-6.4v-13.6ZM1254.7,133.5c-2,0-4.1-.1-6.2-.4v-14.3h6.7c3,0,5.3.6,6.9,1.7,1.6,1.2,2.5,2.9,2.5,5.1,0,5.2-3.3,7.8-9.9,7.8Z"/>
      <polygon class="st0" points="1291.9 126.5 1291.9 88.1 1282.4 88.1 1282.4 142.1 1290.7 142.1 1319 103.7 1319 142.1 1328.5 142.1 1328.5 88.1 1320.2 88.1 1291.9 126.5"/>
      <polygon class="st0" points="1336.8 97 1354.3 97 1354.3 142.1 1363.7 142.1 1363.7 97 1381.2 97 1381.2 88.1 1336.8 88.1 1336.8 97"/>
      <polygon class="st0" points="1399 126.5 1399 88.1 1389.5 88.1 1389.5 142.1 1397.8 142.1 1426.1 103.7 1426.1 142.1 1435.6 142.1 1435.6 88.1 1427.3 88.1 1399 126.5"/>
      <polygon class="st0" points="1455.9 119.2 1475.3 119.2 1475.3 110.4 1455.9 110.4 1455.9 97 1477.6 97 1477.6 88.1 1446.4 88.1 1446.4 142.1 1478.4 142.1 1478.4 133.2 1455.9 133.2 1455.9 119.2"/>
      <polygon class="st0" points="1504.5 97 1522 97 1522 142.1 1531.5 142.1 1531.5 97 1549 97 1549 88.1 1504.5 88.1 1504.5 97"/>
      <path class="st0" d="M1583.2,118.2l-17.7-30.1h-10.7l23.8,39.5-.8,1.8c-1.2,2.5-3,3.8-5.3,3.8s-2.7-.4-4-1.3l-3.3,8c1.8,1.4,4.3,2.2,7.4,2.2s6-1,8.3-3.1c2.3-2.1,4.4-5.2,6.3-9.5l18.3-41.4h-9.6l-12.9,30.1Z"/>
      <path class="st0" d="M1645.7,93.3c-1.5-1.7-3.7-3-6.5-3.9-2.8-1-6.1-1.4-9.9-1.4s-4,0-8,0c-4,0-6.4,0-7.4,0v54h9.5v-19.5c1.5.2,3.9.2,7,.2,6.2,0,11-1.7,14.5-5.1,3.5-3.4,5.2-7.5,5.2-12.4s-.4-4.5-1.1-6.5c-.7-2-1.8-3.8-3.4-5.5ZM1637.4,111.7c-1.9,1.5-4.3,2.2-7.2,2.2s-4.2-.1-6.7-.4v-16.6c3.4-.1,5.7-.2,6.8-.2,6.6,0,9.9,2.8,9.9,8.4s-.9,5.1-2.8,6.5Z"/>
      <polygon class="st0" points="1666.5 126.5 1666.5 88.1 1657.1 88.1 1657.1 142.1 1665.4 142.1 1693.7 103.7 1693.7 142.1 1703.1 142.1 1703.1 88.1 1694.8 88.1 1666.5 126.5"/>
      <path class="st0" d="M1737.3,114.1v-.2c2.4-1.4,4.2-3.2,5.4-5.3,1.2-2.2,1.9-4.3,1.9-6.6,0-4.7-1.5-8.3-4.4-10.9-3-2.6-6.9-3.9-11.8-3.9s-7,.8-10.1,2.3c-3.1,1.5-5.6,3.6-7.4,6.1l5.5,6.3c2.9-3.9,6.6-5.9,10.9-5.9s4.3.6,5.7,1.8c1.4,1.2,2.2,2.9,2.2,5.1s-.8,3.9-2.3,5.2c-1.5,1.3-3.4,1.9-5.5,1.9h-5.2v8.9h5.6c3.1,0,5.4.6,7.1,1.9,1.6,1.3,2.5,3,2.5,5.2s-1,4.6-2.9,6c-1.9,1.4-4.3,2-7.1,2s-4.4-.6-6.8-1.9c-2.4-1.2-4.4-2.8-6.1-4.8l-5.2,6.4c1.6,2.5,4,4.7,7.2,6.4,3.2,1.8,6.9,2.7,11.3,2.7s9.6-1.5,13.3-4.4c3.7-2.9,5.6-6.8,5.6-11.6s-.8-6-2.3-8.2c-1.5-2.3-3.9-3.8-7-4.5Z"/>
      <polygon class="st0" points="1782.9 113.3 1764.5 88.1 1755 88.1 1755 142.1 1764.4 142.1 1764.4 103.3 1781.6 127 1783 127 1800.1 103 1800.1 142.1 1809.5 142.1 1809.5 88.1 1800.5 88.1 1782.9 113.3"/>
      <path class="st0" d="M1848.6,87.9h-8.3l-22.8,54.1h9.6l5.6-13.8h23.1l5.6,13.8h10.1l-22.8-54.1ZM1836.3,119.4l7.9-19.2,7.9,19.2h-15.8Z"/>
    </g>
    <g>
      <polygon class="st0" points="1110 221.3 1110 182.9 1100.5 182.9 1100.5 236.9 1108.8 236.9 1137.1 198.6 1137.1 236.9 1146.6 236.9 1146.6 182.9 1138.3 182.9 1110 221.3"/>
      <polygon class="st0" points="1172.6 236.9 1182.1 236.9 1182.1 191.8 1203 191.8 1203 182.9 1172.6 182.9 1172.6 236.9"/>
      <path class="st0" d="M1231.8,182.1c-8.2,0-14.9,2.7-20.2,8-5.3,5.3-7.9,11.9-7.9,19.8s2.6,15,7.9,20.1c5.3,5.1,12,7.7,20.1,7.7s14.8-2.6,20.1-7.9c5.3-5.2,8-11.9,8-20s-2.7-15-8-20.1c-5.3-5.1-12-7.7-20.2-7.7ZM1245,223.5c-3.3,3.6-7.7,5.4-13.2,5.4s-9.4-1.8-12.8-5.4c-3.5-3.6-5.2-8.1-5.2-13.5s1.7-10.1,5.1-13.6c3.4-3.5,7.7-5.3,12.9-5.3s9.4,1.8,12.9,5.3c3.5,3.5,5.2,8.1,5.2,13.6s-1.6,10-4.9,13.6Z"/>
      <path class="st0" d="M1293.6,228.8c-5.5,0-10-1.8-13.5-5.3-3.5-3.5-5.2-8.1-5.2-13.7s1.7-10.4,5-13.8c3.3-3.4,7.5-5.2,12.6-5.2s8.5,1.2,12.2,3.6l4.2-7c-4-3.6-9.5-5.5-16.4-5.5s-15.4,2.6-20.3,7.9c-4.9,5.2-7.3,11.9-7.3,20s2.6,15.1,7.7,20.2c5.1,5.1,11.8,7.6,20.1,7.6s6.8-.6,10-1.7c3.2-1.1,5.6-2.6,7.3-4.4l-3.6-7.1c-3.8,2.9-8,4.3-12.8,4.3Z"/>
      <polygon class="st0" points="1314.9 191.8 1332.4 191.8 1332.4 236.9 1341.9 236.9 1341.9 191.8 1359.4 191.8 1359.4 182.9 1314.9 182.9 1314.9 191.8"/>
      <polygon class="st0" points="1376.6 214 1396.1 214 1396.1 205.2 1376.6 205.2 1376.6 191.8 1398.4 191.8 1398.4 182.9 1367.2 182.9 1367.2 236.9 1399.2 236.9 1399.2 228 1376.6 228 1376.6 214"/>
      <polygon class="st0" points="1407.1 236.9 1416.6 236.9 1416.6 191.8 1440.6 191.8 1440.6 236.9 1450.1 236.9 1450.1 182.9 1407.1 182.9 1407.1 236.9"/>
      <path class="st0" d="M1490.8,188.1c-1.5-1.7-3.7-3-6.5-3.9s-6.1-1.4-9.9-1.4-4,0-8,0c-4,0-6.4,0-7.4,0v54h9.5v-19.5c1.5.2,3.9.2,7,.2,6.2,0,11-1.7,14.5-5.1,3.5-3.4,5.2-7.5,5.2-12.4s-.4-4.5-1.1-6.5c-.7-2-1.8-3.8-3.4-5.5ZM1482.5,206.5c-1.9,1.5-4.3,2.2-7.2,2.2s-4.2-.1-6.7-.4v-16.6c3.4-.1,5.7-.2,6.8-.2,6.6,0,9.9,2.8,9.9,8.4s-.9,5.1-2.8,6.5Z"/>
      <polygon class="st0" points="1513 221.3 1513 182.9 1503.5 182.9 1503.5 236.9 1511.8 236.9 1540.1 198.6 1540.1 236.9 1549.6 236.9 1549.6 182.9 1541.3 182.9 1513 221.3"/>
      <polygon class="st0" points="1568 221.3 1568 182.9 1558.5 182.9 1558.5 236.9 1566.8 236.9 1595.1 198.6 1595.1 236.9 1604.6 236.9 1604.6 182.9 1596.3 182.9 1568 221.3"/>
      <polygon class="st0" points="1641.5 208.1 1623.1 182.9 1613.5 182.9 1613.5 236.9 1623 236.9 1623 198.1 1640.2 221.8 1641.6 221.8 1658.6 197.9 1658.6 236.9 1668 236.9 1668 182.9 1659.1 182.9 1641.5 208.1"/>
      <path class="st0" d="M1705.7,228.8c-5.5,0-10-1.8-13.5-5.3-3.5-3.5-5.2-8.1-5.2-13.7s1.7-10.4,5-13.8c3.3-3.4,7.5-5.2,12.6-5.2s8.5,1.2,12.2,3.6l4.2-7c-4-3.6-9.5-5.5-16.4-5.5s-15.4,2.6-20.3,7.9c-4.9,5.2-7.3,11.9-7.3,20s2.6,15.1,7.7,20.2c5.1,5.1,11.8,7.6,20.1,7.6s6.8-.6,10-1.7,5.6-2.6,7.3-4.4l-3.6-7.1c-3.8,2.9-8,4.3-12.8,4.3Z"/>
      <polygon class="st0" points="1729.4 191.8 1746.9 191.8 1746.9 236.9 1756.4 236.9 1756.4 191.8 1773.9 191.8 1773.9 182.9 1729.4 182.9 1729.4 191.8"/>
      <path class="st0" d="M1805.8,208.4v-.2c5.1-2.4,7.7-6.5,7.7-12.3s-1.4-7.2-4.3-9.7c-2.9-2.4-7.3-3.7-13.5-3.7s-10.5.1-15.6.4v53.7c3.5.3,8.5.4,15,.4s10.9-1.4,14.5-4.1c3.7-2.7,5.5-6.8,5.5-12.1s-.9-6.2-2.6-8.3c-1.7-2.1-4-3.5-6.9-4.2ZM1789.7,191.8c1.7-.2,3.7-.2,5.9-.2s4.7.6,6.2,1.7c1.5,1.2,2.3,2.8,2.3,5s-.7,4.2-2.2,5.4c-1.5,1.2-3.4,1.8-5.8,1.8h-6.4v-13.6ZM1796,228.3c-2,0-4.1-.1-6.2-.4v-14.3h6.7c3,0,5.3.6,6.9,1.7,1.6,1.2,2.5,2.9,2.5,5.1,0,5.2-3.3,7.8-9.9,7.8Z"/>
      <path class="st0" d="M1848.8,182.7h-8.3l-22.8,54.1h9.6l5.6-13.8h23.1l5.6,13.8h10.1l-22.8-54.1ZM1836.4,214.2l7.9-19.2,7.9,19.2h-15.8Z"/>
    </g>
    <g>
      <polygon class="st0" points="1131 302.9 1112.6 277.7 1103 277.7 1103 331.7 1112.5 331.7 1112.5 292.9 1129.7 316.7 1131.1 316.7 1148.1 292.7 1148.1 331.7 1157.5 331.7 1157.5 277.7 1148.6 277.7 1131 302.9"/>
      <path class="st0" d="M1274.2,323.7c-5.5,0-10-1.8-13.5-5.3-3.5-3.5-5.2-8.1-5.2-13.7s1.7-10.4,5-13.8c3.3-3.4,7.5-5.2,12.6-5.2s8.5,1.2,12.2,3.6l4.2-7c-4-3.6-9.5-5.5-16.4-5.5s-15.4,2.6-20.3,7.9c-4.9,5.2-7.3,11.9-7.3,20s2.6,15.1,7.7,20.2c5.1,5.1,11.8,7.6,20.1,7.6s6.8-.6,10-1.7c3.2-1.1,5.6-2.6,7.3-4.4l-3.6-7.1c-3.8,2.9-8,4.3-12.8,4.3Z"/>
      <polygon class="st0" points="1342.1 277.7 1330.7 277.7 1309.5 303.3 1309.5 277.7 1300 277.7 1300 331.7 1309.5 331.7 1309.5 303.9 1331.5 331.7 1343.5 331.7 1319.9 302.9 1342.1 277.7"/>
      <path class="st0" d="M1375.3,303.2v-.2c5.1-2.4,7.7-6.5,7.7-12.3s-1.4-7.2-4.3-9.7c-2.9-2.4-7.3-3.7-13.5-3.7s-10.5.1-15.6.4v53.7c3.5.3,8.5.4,15,.4s10.9-1.4,14.5-4.1c3.7-2.7,5.5-6.8,5.5-12.1s-.9-6.2-2.6-8.3c-1.7-2.1-4-3.5-6.9-4.2ZM1359.2,286.6c1.7-.2,3.7-.2,5.9-.2s4.7.6,6.2,1.7c1.5,1.2,2.3,2.8,2.3,5s-.7,4.2-2.2,5.4c-1.5,1.2-3.4,1.8-5.8,1.8h-6.4v-13.6ZM1365.4,323.1c-2,0-4.1-.1-6.2-.4v-14.3h6.7c3,0,5.3.6,6.9,1.7,1.6,1.2,2.5,2.9,2.5,5.1,0,5.2-3.3,7.8-9.9,7.8Z"/>
      <rect class="st0" x="1435.4" y="277.7" width="9.4" height="54"/>
      <path class="st0" d="M1408.7,295.8c-2,0-4,.1-6,.4v-18.5h-9.5v54c.9,0,2.9,0,6,0,3.1,0,5.6,0,7.4,0,6.8,0,12.2-1.7,16-5,3.9-3.3,5.8-7.9,5.8-13.6s-1.7-9.7-5-12.8c-3.3-3.1-8.2-4.6-14.8-4.6ZM1407.7,323c-.6,0-1.1,0-1.7,0-.6,0-1.2,0-1.9-.1-.7,0-1.2,0-1.5,0v-17.7c2.4-.3,4.2-.4,5.2-.4,3.3,0,5.9.7,7.7,2.2,1.8,1.5,2.7,3.7,2.7,6.5,0,6.3-3.5,9.5-10.6,9.5Z"/>
      <polygon class="st0" points="1203 259.8 1212.7 287.5 1242.9 287.9 1218 307.2 1226.9 334.5 1203 317.8 1179.1 334.5 1188 307.3 1163.2 287.9 1193.3 287.5 1203 259.8"/>
    </g>
  </g>
  <path class="st0" d="M767.9,204.7v-1.5c12.6-6.3,22.5-17.3,22.5-39.3v-25.7c0-29.4-17.3-48.2-51.9-48.2h-62.9v241h68.6c29.4,0,48.2-18.9,48.2-51.9v-33.5c0-23.7-11.5-35.2-24.6-40.9ZM720.3,126.6h10.5c10.5,0,15.7,5.2,15.7,16.3v26.2c0,13.7-6.8,19.3-16.3,19.3h-9.9v-61.8ZM747.5,275.3c0,12.6-5.8,18.9-16.7,18.9h-10.5v-69.1h9c12,0,18.3,5.2,18.3,19.9v30.3h0Z"/>
  <path class="st0" d="M319.6,87.2c-39.8,0-60.3,17.8-60.3,56v135.2c0,39.8,22,56,59.7,56s58.7-22.5,58.7-56v-135.1c0-37.7-19.4-56.1-58.1-56.1ZM332.7,280c0,11-5.2,16.7-14.1,16.7s-14.1-5.8-14.1-16.7v-139.3c0-10.5,5.8-15.7,14.6-15.7s13.7,6.3,13.7,15.7v139.3Z"/>
  <polygon class="st0" points="170.2 89.9 160.8 261.2 158.7 261.2 148.3 89.9 84.3 89.9 74.9 330.9 116.8 330.9 118.4 141.7 121 141.7 137.8 330.9 179.6 330.9 192.7 141.7 195.4 141.7 200.6 330.9 242.5 330.9 234.1 89.9 170.2 89.9"/>
  <path class="st0" d="M629.7,203v-1.5c11.6-4.7,22-14.6,22-38.2v-73.3h-44.6v77c0,15.7-5.2,21.5-17.3,21.5h-9.4v-98.5h-45v241h45v-104.8h9.9c14.6,0,18.9,8.4,18.9,23v81.7h44.6v-84.9c0-22.5-7.3-35-24.1-42.9Z"/>
  <path class="st0" d="M888,330.9h45l-32-240.9h-69.1l-28.8,241h41.9l5.1-48.7h32.5l5.3,48.6ZM853.9,245l11-105.8h2.1l11.6,105.8h-24.6Z"/>
  <path class="st0" d="M456.8,87.2c-36.7,0-58.1,18.3-58.1,55.5v135.7c0,36.2,18.3,56,58.1,56s57.7-17.3,57.7-56v-36.7h-43.6v39.3c0,9.4-4.7,15.7-13.7,15.7s-13.7-5.8-13.7-15.7v-140.3c0-9.4,4.7-15.7,13.7-15.7s13.7,4.7,13.7,15.2v31.4h43.5v-29.4c0-38.8-20.4-55.1-57.6-55.1Z"/>
</svg>