<svg width="20" height="20" viewBox="0 0 20 20" fill="none" xmlns="http://www.w3.org/2000/svg"><path d="M12.188 7.187V6.25h-.938A1.252 1.252 0 0 0 10 7.5v5a1.252 1.252 0 0 0 1.25 1.25h.938v-.938a1.251 1.251 0 0 1 1.25-1.25h3.124a1.252 1.252 0 0 1 1.25 1.25v3.125a1.252 1.252 0 0 1-1.25 1.25h-3.125a1.251 1.251 0 0 1-1.25-1.25V15h-.937a2.503 2.503 0 0 1-2.5-2.5v-1.875H6.562v.625a1.251 1.251 0 0 1-1.25 1.25h-2.5a1.251 1.251 0 0 1-1.25-1.25v-2.5a1.251 1.251 0 0 1 1.25-1.25h2.5a1.251 1.251 0 0 1 1.25 1.25v.625H8.75V7.5a2.503 2.503 0 0 1 2.5-2.5h.938v-.938a1.252 1.252 0 0 1 1.25-1.25h3.124a1.252 1.252 0 0 1 1.25 1.25v3.125a1.252 1.252 0 0 1-1.25 1.25h-3.125a1.252 1.252 0 0 1-1.25-1.25Z" fill="#fff"/></svg>